<?xml version="1.0" encoding="utf-8"?>
<!-- Generator: Adobe Illustrator 16.0.3, SVG Export Plug-In . SVG Version: 6.00 Build 0)  -->
<!DOCTYPE svg PUBLIC "-//W3C//DTD SVG 1.1//EN" "http://www.w3.org/Graphics/SVG/1.1/DTD/svg11.dtd">
<svg version="1.1" id="Layer_1" xmlns="http://www.w3.org/2000/svg" xmlns:xlink="http://www.w3.org/1999/xlink" x="0px" y="0px"
	 width="79.37px" height="90.709px" viewBox="0 0.145 79.37 90.709" enable-background="new 0 0.145 79.37 90.709"
	 xml:space="preserve">
<path fill="#3E474A" d="M73.846,18.665L45.209,1.667c-1.709-1.015-3.617-1.522-5.524-1.522c-1.908,0-3.816,0.507-5.525,1.522
	L5.523,18.665C2.106,20.694,0,24.444,0,28.502v33.997c0,4.057,2.106,7.809,5.524,9.837l28.637,16.997
	c1.71,1.014,3.616,1.521,5.524,1.521s3.814-0.508,5.523-1.521l28.638-16.997c3.418-2.028,5.524-5.78,5.524-9.837V28.502
	C79.37,24.444,77.264,20.694,73.846,18.665"/>
<path id="Fill-2" fill="#3E474A" d="M73.846,18.666L45.209,1.667c-3.418-2.029-7.631-2.029-11.049,0L5.523,18.666
	C2.106,20.694,0,24.443,0,28.501v33.998c0,4.058,2.106,7.809,5.524,9.838l28.637,16.996c1.709,1.015,3.615,1.521,5.524,1.521
	c1.908,0,3.814-0.506,5.523-1.521l28.637-16.996c3.418-2.029,5.525-5.78,5.525-9.838V28.501
	C79.37,24.443,77.263,20.694,73.846,18.666z"/>
<g>
	<path fill="#7289DA" d="M35.233,87.592L6.596,70.597c-2.801-1.664-4.541-4.766-4.541-8.098V28.502c0-3.332,1.74-6.434,4.54-8.096
		L35.233,3.407c1.373-0.815,2.937-1.246,4.523-1.246c1.585,0,3.149,0.431,4.523,1.246l28.637,16.999
		c2.36,1.401,3.952,3.827,4.4,6.548c-0.95-2.027-3.092-2.578-5.588-1.12L44.636,42.568c-3.378,1.975-5.869,4.191-5.871,8.264v33.383
		c-0.002,2.438,0.983,4.019,2.496,4.478c-0.497,0.086-0.998,0.146-1.505,0.146C38.17,88.838,36.606,88.407,35.233,87.592"/>
	<path fill="#7289DA" d="M66.434,67.086c0,0-0.923-0.938-1.691-1.795c3.36-3.205,4.644-6.75,4.644-6.75
		c-1.051,1.531-2.055,2.759-2.952,3.723c-1.281,1.458-2.513,2.649-3.72,3.616c-2.463,2.041-4.719,3.171-6.644,3.803
		c-1.462,0.468-2.719,0.646-3.771,0.708c-0.59,0.03-1.233,0.027-1.873-0.082c-0.078-0.024-0.154-0.012-0.23-0.037
		c-0.053-0.007-0.077-0.023-0.103-0.046c-0.463-0.073-0.72-0.165-0.72-0.165s1.232,2.023,4.49,1.444
		c-0.77,1.742-1.719,3.833-1.719,3.833c-5.67,3.032-7.824-0.684-7.824-0.684c0-11.015,3.693-22.074,3.693-22.074
		c3.695-5.828,7.209-7.755,7.209-7.755l0.258,0.26c-4.619,4.448-6.748,8.38-6.748,8.38s0.563-0.738,1.514-1.865
		c2.744-3.194,4.926-4.896,5.823-5.518c0.155-0.124,0.284-0.234,0.437-0.322c1.565-1.175,3.334-2.266,5.182-3.059
		c2.438-1.03,5.055-1.583,7.722-1.174c0,0-2.025-1.395-6.388-0.657l0.359-0.753c0,0,3.514-2.133,7.209-0.572
		c0,0,3.693,6.794,3.692,17.813C74.284,57.357,72.103,63.572,66.434,67.086z"/>
</g>
<path fill="#3E474A" d="M54.505,58c-1.462,0.843-2.615,3.219-2.615,5.307c0,2.085,1.179,3.116,2.615,2.286
	c1.465-0.846,2.619-3.219,2.616-5.306C57.15,58.184,55.969,57.154,54.505,58z"/>
<path fill="#3E474A" d="M63.87,52.593c-1.462,0.846-2.617,3.223-2.617,5.306c0,2.088,1.182,3.117,2.617,2.291
	c1.462-0.847,2.617-3.223,2.617-5.311S65.333,51.75,63.87,52.593z"/>
</svg>
