<?xml version="1.0" encoding="utf-8"?>
<!-- Generator: Adobe Illustrator 16.0.3, SVG Export Plug-In . SVG Version: 6.00 Build 0)  -->
<!DOCTYPE svg PUBLIC "-//W3C//DTD SVG 1.1//EN" "http://www.w3.org/Graphics/SVG/1.1/DTD/svg11.dtd">
<svg version="1.1" id="Layer_1" xmlns="http://www.w3.org/2000/svg" xmlns:xlink="http://www.w3.org/1999/xlink" x="0px" y="0px"
	 width="231.208px" height="90.709px" viewBox="0 0.145 231.208 90.709" enable-background="new 0 0.145 231.208 90.709"
	 xml:space="preserve">
<path fill="#3E474A" d="M73.846,18.665L45.208,1.667c-1.709-1.015-3.617-1.522-5.523-1.522c-1.908,0-3.816,0.507-5.525,1.522
	L5.523,18.665C2.106,20.694,0,24.444,0,28.502v33.997c0,4.057,2.106,7.809,5.524,9.837l28.637,16.997
	c1.71,1.014,3.616,1.521,5.524,1.521c1.908,0,3.814-0.508,5.523-1.521l28.638-16.997c3.418-2.028,5.524-5.78,5.524-9.837V28.502
	C79.371,24.444,77.264,20.694,73.846,18.665"/>
<path id="Fill-2" fill="#3E474A" d="M73.846,18.666L45.208,1.667c-3.418-2.029-7.63-2.029-11.048,0L5.523,18.666
	C2.106,20.694,0,24.443,0,28.501v33.998c0,4.059,2.106,7.809,5.524,9.838l28.637,16.996c1.709,1.016,3.615,1.521,5.524,1.521
	c1.908,0,3.814-0.506,5.523-1.521l28.637-16.996c3.418-2.029,5.525-5.779,5.525-9.838V28.501
	C79.371,24.443,77.263,20.694,73.846,18.666z"/>
<g>
	<path fill="#7289DA" d="M35.233,87.592L6.596,70.597c-2.801-1.664-4.541-4.766-4.541-8.098V28.502c0-3.332,1.74-6.434,4.54-8.096
		L35.233,3.407c1.373-0.815,2.937-1.246,4.523-1.246c1.585,0,3.149,0.431,4.523,1.246l28.637,16.999
		c2.36,1.401,3.953,3.827,4.4,6.548c-0.949-2.027-3.092-2.578-5.588-1.12L44.636,42.568c-3.379,1.975-5.869,4.191-5.871,8.264
		v33.383c-0.002,2.438,0.983,4.019,2.496,4.478c-0.497,0.086-0.998,0.146-1.505,0.146C38.17,88.838,36.606,88.407,35.233,87.592"/>
	<path fill="#7289DA" d="M66.434,67.086c0,0-0.923-0.938-1.69-1.795c3.359-3.205,4.644-6.75,4.644-6.75
		c-1.052,1.531-2.056,2.759-2.952,3.724c-1.281,1.457-2.514,2.648-3.721,3.615c-2.463,2.041-4.719,3.171-6.644,3.803
		c-1.462,0.469-2.719,0.646-3.771,0.709c-0.59,0.029-1.233,0.026-1.873-0.082c-0.078-0.023-0.154-0.013-0.23-0.037
		c-0.053-0.008-0.076-0.022-0.104-0.047c-0.463-0.072-0.719-0.164-0.719-0.164s1.231,2.022,4.489,1.443
		c-0.771,1.742-1.719,3.833-1.719,3.833c-5.67,3.032-7.824-0.685-7.824-0.685c0-11.014,3.693-22.073,3.693-22.073
		c3.694-5.828,7.209-7.755,7.209-7.755l0.258,0.26c-4.619,4.448-6.748,8.38-6.748,8.38s0.563-0.737,1.515-1.864
		c2.744-3.193,4.926-4.896,5.822-5.519c0.155-0.124,0.284-0.234,0.438-0.322c1.564-1.175,3.334-2.266,5.182-3.059
		c2.438-1.03,5.055-1.583,7.723-1.174c0,0-2.025-1.395-6.389-0.657l0.359-0.753c0,0,3.514-2.133,7.209-0.572
		c0,0,3.693,6.794,3.691,17.813C74.285,57.356,72.103,63.572,66.434,67.086z"/>
</g>
<path fill="#3E474A" d="M54.505,58c-1.463,0.843-2.615,3.219-2.615,5.308c0,2.084,1.179,3.115,2.615,2.285
	c1.465-0.846,2.619-3.219,2.615-5.306C57.15,58.185,55.969,57.153,54.505,58z"/>
<path fill="#3E474A" d="M63.871,52.593c-1.463,0.846-2.617,3.223-2.617,5.307c0,2.088,1.182,3.117,2.617,2.291
	c1.461-0.848,2.616-3.224,2.616-5.312S65.333,51.75,63.871,52.593z"/>
<text transform="matrix(1 0 0 1 87.1851 56.3877)" fill="#3E474A" font-family="'RobotoMono-Bold'" font-size="30">bashCord</text>
</svg>
